{"title":"Ip.Man.The.Final.Fight.2013..720 HDrip.HC.XVID AC3 BHRG","uid":8347916,"size":2475405923,"categoryP":"video","categoryS":"hd___movies","magnet":"?xt=urn:btih:d44fe8fc7f86da99bc6d2f94bd33dc8e401aee5b&amp;dn=Ip.Man.The.Final.Fight.2013..720+HDrip.HC.XVID+AC3+BHRG&amp;tr=udp%3A%2F%2Ftracker.openbittorrent.com%3A80&amp;tr=udp%3A%2F%2Fopen.demonii.com%3A1337&amp;tr=udp%3A%2F%2Ftracker.coppersurfer.tk%3A6969&amp;tr=udp%3A%2F%2Fexodus.desync.com%3A6969","seeders":1,"leechers":0,"uploader":"Gh0stNet","files":3,"time":1365256626,"description":"Format                                   : AVI\nFormat/Info                              : Audio Video Interleave\nFormat profile                           : OpenDML\nFile size                                : 2.28 GiB\nDuration                                 : 1h 39mn\nOverall bit rate                         : 3 272 Kbps\nWriting library                          : VirtualDub build 30091/release\n\nVideo\nID                                       : 0\nFormat                                   : MPEG-4 Visual\nFormat profile                           : Advanced Simple@L5\nFormat settings, BVOP                    : 2\nFormat settings, QPel                    : No\nFormat settings, GMC                     : No warppoints\nFormat settings, Matrix                  : Default (H.263)\nMuxing mode                              : Packed bitstream\nCodec ID                                 : XVID\nCodec ID/Hint                            : XviD\nDuration                                 : 1h 39mn\nBit rate                                 : 3 002 Kbps\nWidth                                    : 1 280 pixels\nHeight                                   : 624 pixels\nDisplay aspect ratio                     : 2.051\nFrame rate                               : 30.000 fps\nColor space                              : YUV\nChroma subsampling                       : 4:2:0\nBit depth                                : 8 bits\nScan type                                : Progressive\nCompression mode                         : Lossy\nBits/(Pixel*Frame)                       : 0.125\nStream size                              : 2.10 GiB (92%)\nWriting library                          : XviD 1.2.1 (UTC 2008-12-04)\n\nAudio\nID                                       : 1\nFormat                                   : AC-3\nFormat/Info                              : Audio Coding 3\nMode extension                           : CM (complete main)\nFormat settings, Endianness              : Big\nCodec ID                                 : 2000\nDuration                                 : 1h 39mn\nBit rate mode                            : Constant\nBit rate                                 : 256 Kbps\nChannel(s)                               : 6 channels\nChannel positions                        : Front: L C R, Side: L R, LFE\nSampling rate                            : 48.0 KHz\nBit depth                                : 16 bits\nCompression mode                         : Lossy\nStream size                              : 183 MiB (8%)\n\nScreens: &lt;a href=&quot;\nhttp://imgbox.com/acuXlbYo&quot; rel=&quot;nofollow&quot; target=&quot;_NEW&quot;&gt;\nhttp://imgbox.com/acuXlbYo&lt;/a&gt; &lt;a href=&quot;\nhttp://imgbox.com/acgIYYhe&quot; rel=&quot;nofollow&quot; target=&quot;_NEW&quot;&gt;\nhttp://imgbox.com/acgIYYhe&lt;/a&gt;","torrent":{"xt":"urn:btih:d44fe8fc7f86da99bc6d2f94bd33dc8e401aee5b","amp;dn":"Ip.Man.The.Final.Fight.2013..720+HDrip.HC.XVID+AC3+BHRG","amp;tr":["udp%3A%2F%2Ftracker.openbittorrent.com%3A80","udp%3A%2F%2Fopen.demonii.com%3A1337","udp%3A%2F%2Ftracker.coppersurfer.tk%3A6969","udp%3A%2F%2Fexodus.desync.com%3A6969"],"infoHash":"d44fe8fc7f86da99bc6d2f94bd33dc8e401aee5b","infoHashBuffer":{"type":"Buffer","data":[212,79,232,252,127,134,218,153,188,109,47,148,189,51,220,142,64,26,238,91]},"announce":[],"urlList":[]}}